HIERARCHY
ROOT SpineBase
{
  OFFSET 0.000000 0.000000 0.000000
  CHANNELS 6 Xposition Yposition Zposition Zrotation Xrotation Yrotation
  JOINT SpineMid
  {
    OFFSET 0.000000 30.696316 0.000000
    CHANNELS 3 Zrotation Xrotation Yrotation
    JOINT SpineShoulder
    {
      OFFSET -0.096781 22.800699 -0.747748
      CHANNELS 3 Zrotation Xrotation Yrotation
      JOINT Neck
      {
        OFFSET -0.056310 7.566695 -0.570851
        CHANNELS 3 Zrotation Xrotation Yrotation
        JOINT Head
        {
          OFFSET 6.660787 11.396413 2.968441
          CHANNELS 3 Zrotation Xrotation Yrotation
          End Site
          {
            OFFSET 0 0 0
          }
        }
      }
      JOINT ShoulderLeft
      {
        OFFSET -8.596754 -3.409983 -13.002034
        CHANNELS 3 Zrotation Xrotation Yrotation
        JOINT ElbowLeft
        {
          OFFSET -4.921621 -23.884220 -6.102012
          CHANNELS 3 Zrotation Xrotation Yrotation
          JOINT WristLeft
          {
            OFFSET 4.730395 -22.924218 -4.324774
            CHANNELS 3 Zrotation Xrotation Yrotation
            JOINT HandLeft
            {
              OFFSET 1.346213 -8.583804 1.229283
              CHANNELS 3 Zrotation Xrotation Yrotation
              JOINT HandTipLeft
              {
                OFFSET 2.096448 -7.493643 -1.888377
                CHANNELS 3 Zrotation Xrotation Yrotation
                End Site
                {
                  OFFSET 0 0 0
                }
              }
              JOINT ThumbLeft
              {
                OFFSET 2.381926 1.476327 3.480505
                CHANNELS 3 Zrotation Xrotation Yrotation
                End Site
                {
                  OFFSET 0 0 0
                }
              }
            }
          }
        }
      }
      JOINT ShoulderRight
      {
        OFFSET 8.364804 2.889422 2.641402
        CHANNELS 3 Zrotation Xrotation Yrotation
        JOINT ElbowRight
        {
          OFFSET 5.011421 -24.255560 7.159437
          CHANNELS 3 Zrotation Xrotation Yrotation
          JOINT WristRight
          {
            OFFSET -0.920145 -26.956966 1.947028
            CHANNELS 3 Zrotation Xrotation Yrotation
            JOINT HandRight
            {
              OFFSET -0.553863 -8.716262 -0.310669
              CHANNELS 3 Zrotation Xrotation Yrotation
              JOINT HandTipRight
              {
                OFFSET 0.623623 -4.167591 -3.275863
                CHANNELS 3 Zrotation Xrotation Yrotation
                End Site
                {
                  OFFSET 0 0 0
                }
              }
              JOINT ThumbRight
              {
                OFFSET 0.495283 0.625923 -1.351147
                CHANNELS 3 Zrotation Xrotation Yrotation
                End Site
                {
                  OFFSET 0 0 0
                }
              }
            }
          }
        }
      }
    }
  }
  JOINT HipLeft
  {
    OFFSET -4.793144 1.154908 -7.905022
    CHANNELS 3 Zrotation Xrotation Yrotation
    JOINT KneeLeft
    {
      OFFSET -9.597214 -36.456557 -1.946949
      CHANNELS 3 Zrotation Xrotation Yrotation
      JOINT AnkleLeft
      {
        OFFSET -7.085391 -35.619447 2.453378
        CHANNELS 3 Zrotation Xrotation Yrotation
        JOINT FootLeft
        {
          OFFSET 6.200617 -5.766151 -1.966461
          CHANNELS 3 Zrotation Xrotation Yrotation
          End Site
          {
            OFFSET 0 0 0
          }
        }
      }
    }
  }
  JOINT HipRight
  {
    OFFSET 4.720171 0.510058 0.991498
    CHANNELS 3 Zrotation Xrotation Yrotation
    JOINT KneeRight
    {
      OFFSET -5.270873 -35.577959 4.425617
      CHANNELS 3 Zrotation Xrotation Yrotation
      JOINT AnkleRight
      {
        OFFSET -12.108790 -34.705798 -0.721119
        CHANNELS 3 Zrotation Xrotation Yrotation
        JOINT FootRight
        {
          OFFSET 0.769444 -7.645380 -6.039147
          CHANNELS 3 Zrotation Xrotation Yrotation
          End Site
          {
            OFFSET 0 0 0
          }
        }
      }
    }
  }
}
MOTION
Frames: 9
Frame Time: 0.033333
4.720503 78.108878 368.581949 -0.000000 0.000000 -43.081105 0.000000 0.000000 43.081105 -0.000000 0.000000 0.000000 -0.000000 0.000000 0.000000 0.000000 0.000000 0.000000 -0.000000 0.000000 0.000000 -0.000000 0.000000 0.000000 -0.000000 0.000000 0.000000 -0.000000 0.000000 0.000000 0.000000 0.000000 0.000000 0.000000 0.000000 0.000000 -0.000000 0.000000 0.000000 -0.000000 0.000000 0.000000 -0.000000 0.000000 0.000000 -0.000000 0.000000 0.000000 0.000000 0.000000 0.000000 0.000000 0.000000 0.000000 0.000000 0.000000 43.081105 -0.000000 0.000000 0.000000 -0.000000 0.000000 0.000000 0.000000 0.000000 0.000000 0.000000 0.000000 43.081105 -0.000000 0.000000 0.000000 -0.000000 0.000000 0.000000 0.000000 0.000000 0.000000
4.765491 78.202741 368.917557 0.155128 -0.311319 -43.392744 -0.326601 0.119650 43.393506 -0.000000 0.000000 0.000000 -0.000000 0.000000 0.000000 0.000000 0.000000 0.000000 -0.000000 0.000000 0.000000 -0.000000 0.000000 0.000000 -0.150945 -1.600066 -0.274190 2.362926 0.756377 -0.570044 0.000000 0.000000 0.000000 0.000000 0.000000 0.000000 -0.534005 1.184209 0.092947 1.695266 1.350621 -0.086470 -0.474174 -2.004404 -0.053945 -3.494220 -6.950151 1.176488 0.000000 0.000000 0.000000 0.000000 0.000000 0.000000 -0.326601 0.119650 43.393506 -0.000000 0.000000 0.000000 -0.000000 0.000000 0.000000 0.000000 0.000000 0.000000 -0.326601 0.119650 43.393506 -0.000000 0.000000 0.000000 -0.530736 1.523276 0.573842 0.000000 0.000000 0.000000
4.802657 78.285018 369.205753 0.292169 -0.574728 -43.664838 -0.608170 0.214018 43.667439 -0.000000 0.000000 0.000000 -0.000000 0.000000 0.000000 0.000000 0.000000 0.000000 -0.000000 0.000000 0.000000 0.959574 -0.028012 -0.186265 -1.369289 -2.886735 -0.338456 4.188815 1.485058 -0.993868 0.000000 0.000000 0.000000 0.000000 0.000000 0.000000 -0.884254 1.983390 0.165234 2.936909 2.528579 -0.150845 -0.974477 -3.668028 -0.090023 -6.203331 -13.598914 1.718354 0.000000 0.000000 0.000000 0.000000 0.000000 0.000000 -1.349464 0.681366 43.461081 0.216640 -0.849097 0.213756 -0.915413 0.059501 0.379849 0.000000 0.000000 0.000000 -1.371468 0.856878 43.513990 0.110977 -0.991727 0.161542 -0.942104 2.626555 1.012651 0.000000 0.000000 0.000000
4.831998 78.355709 369.446536 0.410937 -0.789814 -43.895935 -0.843746 0.284188 43.900860 -0.000000 0.000000 0.000000 -0.000000 0.000000 0.000000 0.000000 0.000000 0.000000 0.961040 -0.361247 -0.168493 0.330565 0.311829 -0.086708 -2.078419 -3.890404 -0.501160 5.535704 2.176973 -1.246187 0.000000 0.000000 0.000000 0.000000 0.000000 0.000000 -1.041777 2.381667 0.207961 3.711825 3.545474 -0.202522 -1.372262 -4.890672 -0.118024 -8.213481 -19.667487 1.709206 0.000000 0.000000 0.000000 0.000000 0.000000 0.000000 -1.866102 0.927794 43.618820 0.296259 -1.171134 0.295881 -1.199224 -0.021674 0.389870 0.000000 0.000000 0.000000 -1.914105 1.167031 43.690164 0.164288 -1.377639 0.226228 -1.231623 3.331162 1.315223 0.000000 0.000000 0.000000
4.853516 78.414815 369.639907 0.511276 -0.956246 -44.084867 -1.032548 0.331122 44.092117 -0.000000 0.000000 0.000000 -0.000000 0.000000 0.000000 0.000000 0.000000 0.000000 1.089173 -0.416275 -0.189084 0.428891 0.339978 -0.114878 -2.797583 -4.601480 -0.662353 6.442281 2.826109 -1.305883 0.000000 0.000000 0.000000 0.000000 0.000000 0.000000 -1.002182 2.371410 0.216665 4.015369 4.410347 -0.244520 -1.609094 -5.629183 -0.135295 -9.571368 -24.946481 1.261820 0.000000 0.000000 0.000000 0.000000 0.000000 0.000000 -2.275966 1.114689 43.750971 0.356555 -1.425724 0.361272 -1.368027 -0.175635 0.279333 0.000000 0.000000 0.000000 -2.360736 1.402986 43.834965 0.216014 -1.692889 0.280444 -1.397998 3.651585 1.480980 0.000000 0.000000 0.000000
4.867210 78.462334 369.785866 0.593058 -1.073770 -44.230743 -0.366621 0.045018 44.245647 -0.361626 0.785822 -0.006045 -0.000000 0.000000 0.000000 0.000000 0.000000 0.000000 1.122833 -0.438978 -0.192693 0.512102 0.331227 -0.140025 -3.525423 -5.019027 -0.821407 6.927016 3.428399 -1.153605 0.000000 0.000000 0.000000 0.000000 0.000000 0.000000 -0.765861 1.952850 0.191738 3.847798 5.125698 -0.272264 -1.656589 -5.863768 -0.137715 -10.314928 -29.338794 0.499898 0.000000 0.000000 0.000000 0.000000 0.000000 0.000000 -2.578285 1.244061 43.855335 0.397424 -1.613407 0.409811 -1.422438 -0.402833 0.047632 0.000000 0.000000 0.000000 -2.711086 1.567581 43.945913 0.266102 -1.939076 0.324334 -1.440718 3.594773 1.509611 0.000000 0.000000 0.000000
4.907019 78.497262 369.963239 0.706901 -1.239955 -44.409016 -0.448772 0.059447 44.427996 -0.427726 0.883512 -0.006981 -0.000000 0.000000 0.000000 0.000000 0.000000 0.000000 1.074019 -0.446277 -0.178781 0.835069 0.418013 -0.192790 -4.716136 -6.345516 -1.186851 6.538024 6.221703 -0.203739 0.000000 0.000000 0.000000 0.000000 0.000000 0.000000 1.008011 -1.049272 0.089569 0.952296 8.605712 -0.355595 -1.084978 -4.080546 -0.173736 -9.651692 -37.115207 -1.723517 0.000000 0.000000 0.000000 0.000000 0.000000 0.000000 -2.978243 1.374196 43.990696 0.472711 -1.822209 0.462904 -1.155335 -1.196411 -0.917845 0.000000 0.000000 0.000000 -3.264917 1.772735 44.066148 0.399457 -2.308425 0.398981 -1.627044 3.727617 1.672807 0.000000 0.000000 0.000000
4.901204 78.516683 370.007742 0.746267 -1.251964 -44.473360 -0.431830 0.053582 44.494179 -0.087840 0.135307 0.011979 -0.387427 0.776061 -0.020840 0.000000 0.000000 0.000000 0.522426 0.400771 -0.185808 0.760067 0.201159 -0.200274 -5.306262 -6.013769 -1.320972 5.358486 6.471663 0.681724 0.000000 0.000000 0.000000 0.000000 0.000000 0.000000 1.069943 -1.632038 -0.076427 -0.076672 8.454181 -0.141190 -0.671227 -2.314743 -0.176554 -9.348091 -39.491853 -2.616829 0.000000 0.000000 0.000000 0.000000 0.000000 0.000000 -3.026781 1.387582 44.045911 0.455705 -1.855131 0.472349 -1.344680 -1.556551 -1.255205 0.000000 0.000000 0.000000 -3.460419 1.783637 44.102761 0.490136 -2.441541 0.432309 -1.424940 2.891128 1.425906 0.000000 0.000000 0.000000
4.834333 78.525764 369.903158 0.680815 -1.068859 -44.375537 -0.306050 0.015017 44.394445 -0.069125 0.099302 0.013125 -0.403058 0.744971 -0.022255 0.000000 0.000000 0.000000 -0.403058 0.744971 -0.022255 1.113703 -0.326795 -0.273968 -6.104472 -2.883704 -1.051416 5.633323 1.066696 0.260265 0.000000 0.000000 0.000000 0.000000 0.000000 0.000000 0.252831 -0.680539 -0.122844 1.011137 4.950042 0.015963 -0.128275 -2.885026 -0.061197 -8.502885 -36.551877 -3.157287 0.000000 0.000000 0.000000 0.000000 0.000000 0.000000 -2.658796 1.275985 43.974271 0.339441 -1.700171 0.435195 -1.057153 -1.769031 -1.582187 0.000000 0.000000 0.000000 -3.125445 1.633635 44.026482 0.425298 -2.281756 0.398690 -0.524362 0.609219 0.476517 0.000000 0.000000 0.000000
